<?xml version="1.0" encoding="utf-8"?>
<!-- Generator: Adobe Illustrator 16.0.0, SVG Export Plug-In . SVG Version: 6.00 Build 0)  -->
<!DOCTYPE svg PUBLIC "-//W3C//DTD SVG 1.1//EN" "http://www.w3.org/Graphics/SVG/1.1/DTD/svg11.dtd">
<svg version="1.1" id="Layer_1" xmlns="http://www.w3.org/2000/svg" xmlns:xlink="http://www.w3.org/1999/xlink" x="0px" y="0px"
	 width="113.426px" height="39.348px" viewBox="0 0 113.426 39.348" enable-background="new 0 0 113.426 39.348"
	 xml:space="preserve">
<polygon fill="#FFFFFF" points="11.136,0 20.344,0 17.736,7.925 8.53,7.925 "/>
<polygon fill="#FFFFFF" points="34.131,7.925 22.16,7.925 32.036,0 43.969,0 "/>
<polygon fill="#FFFFFF" points="45.895,0 55.099,0 52.494,7.925 43.287,7.925 "/>
<polygon fill="#FFFFFF" points="68.891,7.925 56.917,7.925 66.793,0 78.729,0 "/>
<path fill="#FFFFFF" d="M77.904,7.925c0.447-0.952,1.018-1.905,1.715-2.858c0.701-0.954,1.479-1.804,2.331-2.554
	c0.86-0.75,1.767-1.354,2.727-1.82C85.641,0.231,86.598,0,87.544,0h25.882l-2.613,7.925H77.904L77.904,7.925z"/>
<polygon fill="#FFFFFF" points="33.988,29.65 22.054,29.65 14.588,16.923 10.359,29.65 1.155,29.65 7.636,10.16 16.842,10.16 
	15.655,13.719 20.079,10.16 32.049,10.16 25.611,15.321 "/>
<polygon fill="#FFFFFF" points="68.742,29.65 56.812,29.65 49.345,16.923 45.116,29.65 35.914,29.65 42.381,10.135 51.588,10.135 
	50.413,13.719 54.825,10.16 66.793,10.16 60.369,15.321 "/>
<polygon fill="#FFFFFF" points="82.814,21.729 83.602,19.303 99.727,19.303 102.764,10.193 76.928,10.182 70.445,29.65 
	103.438,29.65 106.086,21.729 "/>
<g>
	<path fill="#FFFFFF" d="M-0.017,33.413h0.9l0.64,2.009c0.002,0.008,0.008,0.025,0.017,0.05c0.077,0.246,0.119,0.429,0.124,0.548
		c0.031-0.094,0.07-0.194,0.119-0.301s0.108-0.221,0.18-0.343l1.32-2.253l0.643,2.319c0.025,0.086,0.045,0.175,0.062,0.266
		c0.017,0.092,0.031,0.196,0.042,0.315c0.041-0.116,0.083-0.221,0.126-0.315c0.043-0.094,0.085-0.176,0.126-0.245l1.191-2.05h1.013
		l-2.669,4.18l-0.664-2.2c-0.025-0.077-0.046-0.161-0.064-0.251s-0.034-0.19-0.048-0.301c-0.061,0.127-0.115,0.238-0.162,0.332
		s-0.083,0.16-0.108,0.199l-1.336,2.221L-0.017,33.413z"/>
	<path fill="#FFFFFF" d="M8.958,33.413h0.9l0.64,2.009c0.002,0.008,0.008,0.025,0.017,0.05c0.077,0.246,0.119,0.429,0.124,0.548
		c0.031-0.094,0.07-0.194,0.119-0.301s0.108-0.221,0.18-0.343l1.32-2.253l0.643,2.319c0.025,0.086,0.045,0.175,0.062,0.266
		c0.017,0.092,0.031,0.196,0.042,0.315c0.041-0.116,0.083-0.221,0.126-0.315c0.043-0.094,0.085-0.176,0.126-0.245l1.191-2.05h1.013
		l-2.669,4.18l-0.664-2.2c-0.025-0.077-0.046-0.161-0.064-0.251s-0.034-0.19-0.048-0.301c-0.061,0.127-0.115,0.238-0.162,0.332
		s-0.083,0.16-0.108,0.199l-1.336,2.221L8.958,33.413z"/>
	<path fill="#FFFFFF" d="M17.933,33.413h0.9l0.64,2.009c0.002,0.008,0.008,0.025,0.017,0.05c0.077,0.246,0.119,0.429,0.124,0.548
		c0.031-0.094,0.07-0.194,0.119-0.301s0.108-0.221,0.18-0.343l1.32-2.253l0.643,2.319c0.025,0.086,0.045,0.175,0.062,0.266
		c0.017,0.092,0.031,0.196,0.042,0.315c0.041-0.116,0.083-0.221,0.126-0.315c0.043-0.094,0.085-0.176,0.126-0.245l1.191-2.05h1.013
		l-2.669,4.18l-0.664-2.2c-0.025-0.077-0.046-0.161-0.064-0.251s-0.034-0.19-0.048-0.301c-0.061,0.127-0.115,0.238-0.162,0.332
		s-0.083,0.16-0.108,0.199l-1.336,2.221L17.933,33.413z"/>
	<path fill="#FFFFFF" d="M26.705,36.887c0-0.152,0.053-0.282,0.158-0.39c0.105-0.108,0.234-0.162,0.386-0.162
		c0.152,0,0.281,0.054,0.386,0.162c0.105,0.107,0.158,0.237,0.158,0.39c0,0.149-0.053,0.276-0.158,0.38s-0.234,0.155-0.386,0.155
		c-0.152,0-0.281-0.052-0.386-0.155S26.705,37.036,26.705,36.887z"/>
	<path fill="#FFFFFF" d="M31.575,37.348l0.851-6.434h0.893l-0.552,4.172l1.997-1.673h1.158l-2.15,1.81l1.673,2.125h-1.079
		l-1.615-2.092l-0.282,2.092H31.575z"/>
	<path fill="#FFFFFF" d="M38.57,37.348l0.851-6.434h0.893l-0.552,4.172l1.997-1.673h1.158l-2.15,1.81l1.673,2.125h-1.079
		l-1.615-2.092l-0.282,2.092H38.57z"/>
	<path fill="#FFFFFF" d="M48.507,36.14l0.644,0.503c-0.229,0.301-0.479,0.521-0.747,0.659c-0.269,0.139-0.577,0.208-0.926,0.208
		c-0.584,0-1.056-0.177-1.415-0.529c-0.36-0.353-0.54-0.817-0.54-1.393c0-0.675,0.207-1.229,0.621-1.662
		c0.414-0.434,0.94-0.649,1.58-0.649c0.534,0,0.959,0.165,1.276,0.496c0.316,0.33,0.475,0.773,0.475,1.33
		c0,0.047-0.002,0.107-0.006,0.181s-0.011,0.161-0.019,0.264h-3.001c0,0.356,0.09,0.641,0.27,0.853
		c0.181,0.212,0.419,0.317,0.719,0.317c0.207,0,0.404-0.051,0.591-0.151C48.214,36.464,48.375,36.323,48.507,36.14z M46.528,34.907
		h2.029c-0.009-0.266-0.091-0.476-0.247-0.629s-0.366-0.23-0.629-0.23c-0.299,0-0.552,0.078-0.759,0.232
		C46.714,34.436,46.583,34.645,46.528,34.907z"/>
	<path fill="#FFFFFF" d="M56.088,34.533c-0.178-0.154-0.363-0.272-0.559-0.354c-0.195-0.081-0.394-0.122-0.596-0.122
		c-0.401,0-0.729,0.141-0.981,0.423s-0.38,0.649-0.38,1.101c0,0.354,0.094,0.632,0.282,0.834s0.445,0.303,0.772,0.303
		c0.199,0,0.403-0.034,0.613-0.104c0.211-0.069,0.423-0.173,0.636-0.312l-0.187,0.95c-0.164,0.086-0.335,0.15-0.516,0.193
		c-0.18,0.043-0.37,0.064-0.572,0.064c-0.592,0-1.066-0.175-1.422-0.525c-0.355-0.35-0.533-0.815-0.533-1.396
		c0-0.681,0.214-1.236,0.642-1.666c0.428-0.431,0.979-0.646,1.653-0.646c0.252,0,0.486,0.033,0.704,0.1
		c0.217,0.066,0.427,0.169,0.629,0.307L56.088,34.533z"/>
	<path fill="#FFFFFF" d="M61.418,33.268c0.611,0,1.1,0.18,1.465,0.538s0.549,0.836,0.549,1.434c0,0.661-0.215,1.205-0.645,1.631
		c-0.428,0.427-0.979,0.64-1.652,0.64c-0.6,0-1.08-0.176-1.439-0.527s-0.539-0.819-0.539-1.402c0-0.682,0.211-1.236,0.631-1.667
		C60.207,33.484,60.752,33.268,61.418,33.268z M61.426,34.057c-0.395,0-0.719,0.143-0.969,0.428
		c-0.25,0.284-0.375,0.649-0.375,1.096c0,0.354,0.094,0.632,0.281,0.834c0.189,0.202,0.445,0.303,0.771,0.303
		c0.414,0,0.744-0.136,0.99-0.406c0.248-0.271,0.371-0.637,0.371-1.096c0-0.368-0.092-0.653-0.279-0.855
		S61.766,34.057,61.426,34.057z"/>
	<path fill="#FFFFFF" d="M69.301,34.201c-0.061-0.044-0.125-0.078-0.195-0.102c-0.072-0.023-0.146-0.035-0.227-0.035
		c-0.318,0-0.568,0.118-0.752,0.354c-0.182,0.234-0.305,0.598-0.369,1.087l-0.25,1.843h-0.891l0.518-3.935h0.859l-0.066,0.511
		c0.154-0.219,0.324-0.382,0.508-0.488c0.186-0.106,0.383-0.159,0.596-0.159c0.098,0,0.193,0.013,0.287,0.037
		s0.186,0.063,0.273,0.116L69.301,34.201z"/>
	<path fill="#FFFFFF" d="M72.736,33.413h0.85l-0.041,0.415c0.18-0.186,0.373-0.324,0.58-0.415c0.205-0.091,0.43-0.137,0.67-0.137
		c0.518,0,0.916,0.16,1.195,0.481c0.279,0.32,0.418,0.777,0.418,1.369c0,0.697-0.17,1.262-0.514,1.693s-0.791,0.647-1.34,0.647
		c-0.266,0-0.514-0.055-0.74-0.166c-0.227-0.11-0.438-0.279-0.635-0.506l-0.314,2.415h-0.893L72.736,33.413z M75.484,35.256
		c0-0.379-0.086-0.672-0.254-0.88c-0.17-0.208-0.408-0.312-0.719-0.312c-0.365,0-0.65,0.142-0.859,0.424
		c-0.207,0.282-0.311,0.671-0.311,1.166c0,0.335,0.094,0.604,0.279,0.805c0.188,0.202,0.439,0.304,0.754,0.304
		c0.344,0,0.613-0.135,0.813-0.403C75.385,36.092,75.484,35.724,75.484,35.256z"/>
	<path fill="#FFFFFF" d="M79.834,36.887c0-0.152,0.053-0.282,0.158-0.39c0.105-0.108,0.234-0.162,0.387-0.162
		s0.279,0.054,0.385,0.162c0.105,0.107,0.158,0.237,0.158,0.39c0,0.149-0.053,0.276-0.158,0.38s-0.232,0.155-0.385,0.155
		s-0.281-0.052-0.387-0.155S79.834,37.036,79.834,36.887z"/>
	<path fill="#FFFFFF" d="M88.104,34.533c-0.178-0.154-0.363-0.272-0.559-0.354c-0.195-0.081-0.393-0.122-0.596-0.122
		c-0.4,0-0.729,0.141-0.98,0.423c-0.254,0.282-0.381,0.649-0.381,1.101c0,0.354,0.094,0.632,0.283,0.834
		c0.188,0.202,0.445,0.303,0.771,0.303c0.199,0,0.404-0.034,0.613-0.104c0.211-0.069,0.424-0.173,0.637-0.312l-0.188,0.95
		c-0.164,0.086-0.334,0.15-0.516,0.193c-0.18,0.043-0.369,0.064-0.572,0.064c-0.592,0-1.066-0.175-1.422-0.525
		c-0.355-0.35-0.533-0.815-0.533-1.396c0-0.681,0.215-1.236,0.643-1.666c0.428-0.431,0.979-0.646,1.652-0.646
		c0.252,0,0.486,0.033,0.705,0.1c0.217,0.066,0.426,0.169,0.629,0.307L88.104,34.533z"/>
	<path fill="#FFFFFF" d="M93.436,33.268c0.611,0,1.1,0.18,1.465,0.538s0.547,0.836,0.547,1.434c0,0.661-0.215,1.205-0.643,1.631
		c-0.43,0.427-0.98,0.64-1.652,0.64c-0.6,0-1.08-0.176-1.439-0.527c-0.361-0.352-0.541-0.819-0.541-1.402
		c0-0.682,0.211-1.236,0.631-1.667C92.225,33.484,92.768,33.268,93.436,33.268z M93.443,34.057c-0.396,0-0.719,0.143-0.969,0.428
		c-0.252,0.284-0.377,0.649-0.377,1.096c0,0.354,0.094,0.632,0.283,0.834c0.188,0.202,0.445,0.303,0.771,0.303
		c0.412,0,0.742-0.136,0.99-0.406c0.248-0.271,0.371-0.637,0.371-1.096c0-0.368-0.094-0.653-0.279-0.855
		C94.047,34.157,93.783,34.057,93.443,34.057z"/>
	<path fill="#FFFFFF" d="M103.783,37.348l0.299-2.271c0.008-0.05,0.014-0.1,0.018-0.151c0.004-0.051,0.006-0.103,0.006-0.155
		c0-0.263-0.053-0.465-0.162-0.604s-0.268-0.209-0.473-0.209c-0.326,0-0.578,0.115-0.756,0.347c-0.18,0.23-0.303,0.6-0.369,1.105
		l-0.244,1.938h-0.9l0.287-2.266c0.008-0.081,0.012-0.14,0.014-0.177s0.002-0.073,0.002-0.106c0-0.284-0.055-0.496-0.162-0.635
		c-0.107-0.138-0.273-0.207-0.498-0.207c-0.307,0-0.547,0.116-0.719,0.349c-0.174,0.232-0.293,0.601-0.359,1.104l-0.25,1.938h-0.883
		l0.518-3.935h0.885l-0.129,0.474c0.207-0.205,0.422-0.358,0.645-0.459c0.223-0.102,0.459-0.151,0.709-0.151
		c0.281,0,0.514,0.06,0.697,0.181c0.182,0.12,0.32,0.304,0.414,0.55c0.232-0.252,0.467-0.437,0.701-0.555
		c0.236-0.117,0.494-0.176,0.773-0.176c0.373,0,0.662,0.107,0.869,0.323c0.205,0.216,0.309,0.521,0.309,0.918
		c0,0.082-0.004,0.18-0.012,0.29c-0.01,0.11-0.023,0.26-0.047,0.448l-0.273,2.092H103.783z"/>
</g>
</svg>
