<?xml version="1.0" encoding="utf-8"?>
<!-- Generator: Adobe Illustrator 16.0.0, SVG Export Plug-In . SVG Version: 6.00 Build 0)  -->
<!DOCTYPE svg PUBLIC "-//W3C//DTD SVG 1.1//EN" "http://www.w3.org/Graphics/SVG/1.1/DTD/svg11.dtd">
<svg version="1.1" id="Layer_1" xmlns="http://www.w3.org/2000/svg" xmlns:xlink="http://www.w3.org/1999/xlink" x="0px" y="0px"
	 width="897.007px" height="311.174px" viewBox="-783.582 -271.826 897.007 311.174"
	 enable-background="new -783.582 -271.826 897.007 311.174" xml:space="preserve">
<polygon fill="#008677" points="-694.626,-271.486 -621.885,-271.486 -642.49,-208.883 -715.216,-208.883 "/>
<polygon fill="#008677" points="-512.979,-208.883 -607.544,-208.883 -529.527,-271.486 -435.263,-271.486 "/>
<polygon fill="#008677" points="-420.042,-271.486 -347.333,-271.486 -367.915,-208.883 -440.648,-208.883 "/>
<polygon fill="#008677" points="-238.388,-208.883 -332.976,-208.883 -254.959,-271.486 -160.672,-271.486 "/>
<path fill="#008677" d="M-167.183-208.883c3.533-7.518,8.039-15.047,13.547-22.581c5.539-7.533,11.68-14.252,18.415-20.177
	c6.796-5.929,13.956-10.708,21.539-14.376c7.614-3.646,15.175-5.47,22.65-5.47h204.458l-20.645,62.604H-167.183L-167.183-208.883z"
	/>
<polygon fill="#69B49E" points="-514.106,-37.258 -608.377,-37.258 -667.363,-137.797 -700.766,-37.258 -773.476,-37.258 
	-722.275,-191.228 -649.557,-191.228 -658.93,-163.112 -623.984,-191.228 -529.427,-191.228 -580.281,-150.453 "/>
<polygon fill="#69B49E" points="-239.561,-37.258 -333.802,-37.258 -392.787,-137.797 -426.198,-37.258 -498.892,-37.258 
	-447.807,-191.421 -375.074,-191.421 -384.355,-163.112 -349.5,-191.228 -254.959,-191.228 -305.705,-150.453 "/>
<polygon fill="#69B49E" points="-128.394,-99.838 -122.169,-118.997 5.206,-118.997 29.198,-190.962 -174.89,-191.051 
	-226.099,-37.258 34.521,-37.258 55.443,-99.838 "/>
<g>
	<path fill="#008677" d="M-770.707-1.286l2.82,24.36h0.66c0.52,0,0.99-0.189,1.41-0.57c0.42-0.38,0.849-1.07,1.29-2.07
		c0.44-0.879,0.89-1.95,1.35-3.21c0.459-1.26,0.91-2.67,1.35-4.23c0.36-1.2,0.68-2.39,0.96-3.57c0.279-1.179,0.549-2.479,0.81-3.9
		c0.26-1.419,0.53-3.09,0.81-5.01c0.08-0.48,0.3-0.9,0.66-1.26c0.36-0.36,0.84-0.54,1.44-0.54h6.96c0.56,0,1.01,0.17,1.35,0.51
		c0.339,0.34,0.529,0.771,0.57,1.29l2.16,22.561h0.66c0.56,0,1.02-0.26,1.38-0.78c0.36-0.52,0.699-1.159,1.02-1.92
		c0.639-1.24,1.209-2.43,1.71-3.57c0.5-1.14,1.05-2.61,1.65-4.41c0.72-2.12,1.329-4.3,1.83-6.54c0.5-2.24,0.93-4.62,1.29-7.14h7.38
		c-0.36,1.761-0.76,3.54-1.2,5.34c-0.44,1.8-0.92,3.561-1.44,5.28c-0.521,1.72-1.101,3.4-1.74,5.04c-0.72,1.92-1.491,3.73-2.31,5.43
		c-0.82,1.7-1.551,3.07-2.19,4.11c-0.561,0.96-1.161,1.76-1.8,2.4c-0.64,0.64-1.4,1.109-2.28,1.409c-0.88,0.3-2.021,0.45-3.42,0.45
		h-3.72c-0.6,0-1.101-0.189-1.5-0.57c-0.4-0.379-0.621-0.85-0.66-1.41l-1.92-22.919h-0.78c-0.12,0.88-0.28,1.95-0.48,3.21
		c-0.201,1.26-0.46,2.58-0.78,3.96c-0.32,1.38-0.66,2.73-1.02,4.05c-0.32,1.041-0.66,2.091-1.02,3.15
		c-0.36,1.06-0.73,2.05-1.11,2.969c-0.38,0.922-0.771,1.721-1.17,2.4c-0.6,1.48-1.311,2.59-2.13,3.33
		c-0.82,0.74-1.721,1.23-2.7,1.471c-0.98,0.239-2.07,0.359-3.27,0.359h-4.02c-0.6,0-1.101-0.189-1.5-0.57
		c-0.4-0.379-0.64-0.85-0.72-1.41l-4.08-27.479H-770.707z"/>
	<path fill="#008677" d="M-698.887-1.286l2.82,24.36h0.66c0.52,0,0.99-0.189,1.41-0.57c0.42-0.38,0.849-1.07,1.29-2.07
		c0.44-0.879,0.89-1.95,1.35-3.21c0.459-1.26,0.91-2.67,1.35-4.23c0.36-1.2,0.68-2.39,0.96-3.57c0.279-1.179,0.549-2.479,0.81-3.9
		c0.26-1.419,0.53-3.09,0.81-5.01c0.08-0.48,0.3-0.9,0.66-1.26c0.36-0.36,0.84-0.54,1.44-0.54h6.96c0.56,0,1.01,0.17,1.35,0.51
		c0.339,0.34,0.529,0.771,0.57,1.29l2.16,22.561h0.66c0.56,0,1.02-0.26,1.38-0.78c0.36-0.52,0.699-1.159,1.02-1.92
		c0.639-1.24,1.209-2.43,1.71-3.57c0.5-1.14,1.05-2.61,1.65-4.41c0.72-2.12,1.329-4.3,1.83-6.54c0.5-2.24,0.93-4.62,1.29-7.14h7.38
		c-0.36,1.761-0.76,3.54-1.2,5.34c-0.44,1.8-0.92,3.561-1.44,5.28c-0.521,1.72-1.101,3.4-1.74,5.04c-0.72,1.92-1.491,3.73-2.31,5.43
		c-0.82,1.7-1.551,3.07-2.19,4.11c-0.561,0.96-1.161,1.76-1.8,2.4c-0.64,0.64-1.4,1.109-2.28,1.409c-0.88,0.3-2.021,0.45-3.42,0.45
		h-3.72c-0.6,0-1.101-0.189-1.5-0.57c-0.4-0.379-0.621-0.85-0.66-1.41l-1.92-22.919h-0.78c-0.12,0.88-0.28,1.95-0.48,3.21
		c-0.201,1.26-0.46,2.58-0.78,3.96c-0.32,1.38-0.66,2.73-1.02,4.05c-0.32,1.041-0.66,2.091-1.02,3.15
		c-0.36,1.06-0.73,2.05-1.11,2.969c-0.38,0.922-0.771,1.721-1.17,2.4c-0.6,1.48-1.311,2.59-2.13,3.33
		c-0.82,0.74-1.721,1.23-2.7,1.471c-0.98,0.239-2.07,0.359-3.27,0.359h-4.02c-0.6,0-1.101-0.189-1.5-0.57
		c-0.4-0.379-0.64-0.85-0.72-1.41l-4.08-27.479H-698.887z"/>
	<path fill="#008677" d="M-627.068-1.286l2.82,24.36h0.66c0.52,0,0.99-0.189,1.41-0.57c0.42-0.38,0.849-1.07,1.29-2.07
		c0.44-0.879,0.89-1.95,1.35-3.21c0.459-1.26,0.91-2.67,1.35-4.23c0.36-1.2,0.68-2.39,0.96-3.57c0.279-1.179,0.549-2.479,0.81-3.9
		c0.26-1.419,0.53-3.09,0.81-5.01c0.08-0.48,0.3-0.9,0.66-1.26c0.36-0.36,0.84-0.54,1.44-0.54h6.96c0.56,0,1.01,0.17,1.35,0.51
		c0.339,0.34,0.529,0.771,0.57,1.29l2.16,22.561h0.66c0.56,0,1.02-0.26,1.38-0.78c0.36-0.52,0.699-1.159,1.02-1.92
		c0.639-1.24,1.209-2.43,1.71-3.57c0.5-1.14,1.05-2.61,1.65-4.41c0.72-2.12,1.329-4.3,1.83-6.54c0.5-2.24,0.93-4.62,1.29-7.14h7.38
		c-0.36,1.761-0.76,3.54-1.2,5.34c-0.44,1.8-0.92,3.561-1.44,5.28c-0.521,1.72-1.101,3.4-1.74,5.04c-0.72,1.92-1.491,3.73-2.31,5.43
		c-0.82,1.7-1.551,3.07-2.19,4.11c-0.561,0.96-1.161,1.76-1.8,2.4c-0.64,0.64-1.4,1.109-2.28,1.409c-0.88,0.3-2.021,0.45-3.42,0.45
		h-3.72c-0.6,0-1.101-0.189-1.5-0.57c-0.4-0.379-0.621-0.85-0.66-1.41l-1.92-22.919h-0.78c-0.12,0.88-0.28,1.95-0.48,3.21
		c-0.201,1.26-0.46,2.58-0.78,3.96c-0.32,1.38-0.66,2.73-1.02,4.05c-0.32,1.041-0.66,2.091-1.02,3.15
		c-0.36,1.06-0.73,2.05-1.11,2.969c-0.38,0.922-0.771,1.721-1.17,2.4c-0.6,1.48-1.311,2.59-2.13,3.33
		c-0.82,0.74-1.721,1.23-2.7,1.471c-0.98,0.239-2.07,0.359-3.27,0.359h-4.02c-0.6,0-1.101-0.189-1.5-0.57
		c-0.4-0.379-0.64-0.85-0.72-1.41l-4.08-27.479H-627.068z"/>
	<path fill="#008677" d="M-559.448,19.954c0.919,0,1.59,0.22,2.01,0.66c0.42,0.441,0.57,1.121,0.45,2.041l-0.42,3.06
		c-0.12,0.84-0.4,1.46-0.84,1.86c-0.441,0.4-1.101,0.6-1.98,0.6h-1.92c-1.88,0-2.7-0.9-2.46-2.7l0.42-3.12
		c0.24-1.6,1.2-2.4,2.88-2.4H-559.448z"/>
	<path fill="#008677" d="M-517.688-13.826l-2.58,19.14c-0.201,1.32-0.48,2.57-0.84,3.75c-0.36,1.18-0.82,2.43-1.38,3.75
		c0.08,0.681,0.18,1.431,0.3,2.25c0.12,0.82,0.18,1.55,0.18,2.19l-1.62,10.92h-7.26l5.88-42H-517.688z M-500.768-1.286
		c-0.921,3.04-2.201,5.62-3.84,7.74c-1.641,2.121-3.52,3.911-5.64,5.37c-2.121,1.461-4.331,2.7-6.63,3.72
		c-2.3,1.02-4.49,1.95-6.57,2.79l-0.6-5.22c2.4-0.96,4.689-2.149,6.87-3.57c2.18-1.419,4.07-3.05,5.67-4.89
		c1.6-1.839,2.7-3.819,3.3-5.94H-500.768z M-511.868,11.194c0.759,0.64,1.41,1.36,1.95,2.16c0.54,0.8,0.99,1.6,1.35,2.4l5.7,12.42
		h-7.62l-6.6-15L-511.868,11.194z"/>
	<path fill="#008677" d="M-465.429-13.826l-2.58,19.14c-0.201,1.32-0.48,2.57-0.84,3.75c-0.36,1.18-0.82,2.43-1.38,3.75
		c0.08,0.681,0.18,1.431,0.3,2.25c0.12,0.82,0.18,1.55,0.18,2.19l-1.62,10.92h-7.26l5.88-42H-465.429z M-448.509-1.286
		c-0.921,3.04-2.201,5.62-3.84,7.74c-1.641,2.121-3.52,3.911-5.64,5.37c-2.121,1.461-4.331,2.7-6.63,3.72
		c-2.3,1.02-4.49,1.95-6.57,2.79l-0.6-5.22c2.4-0.96,4.689-2.149,6.87-3.57c2.18-1.419,4.07-3.05,5.67-4.89
		c1.6-1.839,2.7-3.819,3.3-5.94H-448.509z M-459.609,11.194c0.759,0.64,1.41,1.36,1.95,2.16c0.54,0.8,0.99,1.6,1.35,2.4l5.7,12.42
		h-7.62l-6.6-15L-459.609,11.194z"/>
	<path fill="#008677" d="M-409.448-2.006c3.399,0,6.03,0.371,7.89,1.11c1.86,0.74,3.109,1.84,3.75,3.3
		c0.639,1.46,0.78,3.27,0.42,5.43c-0.321,1.88-0.93,3.36-1.83,4.44s-2.14,1.89-3.72,2.43c-1.581,0.54-3.59,0.911-6.03,1.11
		l-14.76,1.26l0.66-4.44l13.08-1.26c1.2-0.12,2.169-0.31,2.91-0.57c0.74-0.26,1.32-0.669,1.74-1.23c0.42-0.56,0.71-1.359,0.87-2.4
		c0.2-1.16,0.12-2.02-0.24-2.58c-0.36-0.56-0.96-0.909-1.8-1.05c-0.84-0.14-1.96-0.21-3.36-0.21c-1.36,0-2.52,0.13-3.48,0.39
		c-0.96,0.261-1.761,0.73-2.4,1.41c-0.641,0.681-1.17,1.63-1.59,2.85c-0.42,1.221-0.79,2.83-1.11,4.83
		c-0.44,2.88-0.49,5.05-0.15,6.51c0.339,1.461,1.059,2.44,2.16,2.94c1.1,0.501,2.57,0.75,4.41,0.75c1,0,2.16-0.029,3.48-0.09
		c1.32-0.061,2.649-0.14,3.99-0.24c1.339-0.1,2.569-0.21,3.69-0.33l0.48,4.62c-1.08,0.479-2.37,0.86-3.87,1.14s-3,0.48-4.5,0.601
		s-2.91,0.181-4.23,0.181c-3.681,0-6.55-0.581-8.61-1.74c-2.061-1.16-3.431-2.93-4.11-5.311c-0.68-2.379-0.8-5.37-0.36-8.97
		c0.399-2.96,1.01-5.41,1.83-7.35c0.819-1.94,1.89-3.459,3.21-4.56c1.32-1.1,2.94-1.87,4.86-2.31
		C-414.248-1.786-412.009-2.006-409.448-2.006z"/>
	<path fill="#008677" d="M-365.769-1.286l2.82,24.36h0.66c0.52,0,0.99-0.189,1.41-0.57c0.42-0.38,0.849-1.07,1.29-2.07
		c0.44-0.879,0.89-1.95,1.35-3.21c0.459-1.26,0.91-2.67,1.35-4.23c0.36-1.2,0.68-2.39,0.96-3.57c0.279-1.179,0.549-2.479,0.81-3.9
		c0.26-1.419,0.53-3.09,0.81-5.01c0.08-0.48,0.3-0.9,0.66-1.26c0.36-0.36,0.84-0.54,1.44-0.54h6.96c0.56,0,1.01,0.17,1.35,0.51
		c0.339,0.34,0.529,0.771,0.57,1.29l2.16,22.561h0.66c0.56,0,1.02-0.26,1.38-0.78c0.36-0.52,0.699-1.159,1.02-1.92
		c0.639-1.24,1.209-2.43,1.71-3.57c0.5-1.14,1.05-2.61,1.65-4.41c0.72-2.12,1.329-4.3,1.83-6.54c0.5-2.24,0.93-4.62,1.29-7.14h7.38
		c-0.36,1.761-0.76,3.54-1.2,5.34c-0.44,1.8-0.92,3.561-1.44,5.28c-0.521,1.72-1.101,3.4-1.74,5.04c-0.72,1.92-1.491,3.73-2.31,5.43
		c-0.82,1.7-1.551,3.07-2.19,4.11c-0.561,0.96-1.161,1.76-1.8,2.4c-0.64,0.64-1.4,1.109-2.28,1.409c-0.88,0.3-2.021,0.45-3.42,0.45
		h-3.72c-0.6,0-1.101-0.189-1.5-0.57c-0.4-0.379-0.621-0.85-0.66-1.41l-1.92-22.919h-0.78c-0.12,0.88-0.28,1.95-0.48,3.21
		c-0.201,1.26-0.46,2.58-0.78,3.96c-0.32,1.38-0.66,2.73-1.02,4.05c-0.32,1.041-0.66,2.091-1.02,3.15
		c-0.36,1.06-0.73,2.05-1.11,2.969c-0.38,0.922-0.771,1.721-1.17,2.4c-0.6,1.48-1.311,2.59-2.13,3.33
		c-0.82,0.74-1.721,1.23-2.7,1.471c-0.98,0.239-2.07,0.359-3.27,0.359h-4.02c-0.6,0-1.101-0.189-1.5-0.57
		c-0.4-0.379-0.64-0.85-0.72-1.41l-4.08-27.479H-365.769z"/>
	<path fill="#008677" d="M-285.369-2.006c1.04,0,2.19,0.041,3.45,0.12c1.26,0.081,2.529,0.19,3.81,0.33
		c1.28,0.141,2.51,0.3,3.69,0.48c1.18,0.18,2.19,0.37,3.03,0.57l-4.44,4.14c-1.84-0.08-3.51-0.14-5.01-0.18
		c-1.5-0.039-2.79-0.06-3.87-0.06c-1.6,0-2.931,0.11-3.99,0.33c-1.061,0.221-1.93,0.66-2.61,1.32c-0.681,0.66-1.23,1.641-1.65,2.94
		c-0.42,1.3-0.79,3.03-1.11,5.19c-0.36,2.68-0.54,4.72-0.54,6.12c0,1.4,0.279,2.36,0.84,2.88c0.56,0.521,1.419,0.779,2.58,0.779
		c1.24-0.039,2.5-0.379,3.78-1.02c1.28-0.639,2.58-1.56,3.9-2.76s2.64-2.6,3.96-4.2l1.32,2.7c-0.88,2.121-2.08,4.02-3.6,5.7
		c-1.521,1.68-3.261,3.011-5.22,3.989c-1.96,0.98-4.101,1.49-6.42,1.531c-2.48,0.039-4.39-0.471-5.73-1.531
		c-1.341-1.059-2.181-2.779-2.52-5.16c-0.34-2.379-0.25-5.449,0.27-9.209c0.52-3.36,1.22-6.049,2.1-8.07
		c0.879-2.02,1.98-3.52,3.3-4.5c1.32-0.979,2.87-1.629,4.65-1.95C-289.62-1.846-287.61-2.006-285.369-2.006z M-278.59-0.806l7.2,0.3
		l-4.02,28.68h-5.64l0.24-6.779l-0.84-0.66L-278.59-0.806z"/>
	<path fill="#008677" d="M-233.35-2.006c1.44,0,2.959,0.051,4.56,0.15c1.599,0.1,3.14,0.22,4.62,0.36
		c1.479,0.141,2.8,0.31,3.96,0.51l-0.78,4.68c-1.88-0.04-3.76-0.08-5.64-0.12c-1.88-0.039-3.84-0.06-5.88-0.06
		c-1.6,0-2.871,0.041-3.81,0.12c-0.94,0.081-1.641,0.28-2.1,0.6c-0.46,0.321-0.73,0.84-0.81,1.56c-0.161,0.96,0.049,1.66,0.63,2.1
		c0.579,0.44,1.49,0.9,2.73,1.38l7.68,3.12c1.56,0.561,2.82,1.21,3.78,1.95c0.96,0.741,1.64,1.641,2.04,2.7
		c0.399,1.06,0.5,2.37,0.3,3.93c-0.28,2.32-1.01,4.03-2.19,5.13c-1.18,1.102-2.77,1.83-4.77,2.19c-2,0.36-4.4,0.54-7.2,0.54
		c-1.68,0-3.141-0.041-4.38-0.12c-1.24-0.081-2.47-0.19-3.69-0.33c-1.221-0.141-2.65-0.31-4.29-0.51l0.72-4.74
		c0.84,0.04,1.8,0.07,2.88,0.09c1.08,0.021,2.21,0.04,3.39,0.06c1.179,0.021,2.289,0.031,3.33,0.031
		c2.359-0.04,4.17-0.13,5.43-0.271c1.26-0.14,2.169-0.399,2.73-0.78c0.56-0.379,0.9-0.93,1.02-1.65c0.08-0.639,0-1.14-0.24-1.5
		c-0.24-0.36-0.641-0.669-1.2-0.93c-0.561-0.259-1.3-0.57-2.22-0.93l-7.62-3.06c-1.48-0.639-2.7-1.359-3.66-2.16
		c-0.96-0.799-1.62-1.76-1.98-2.88c-0.36-1.119-0.44-2.419-0.24-3.9c0.24-1.88,0.84-3.35,1.8-4.41c0.96-1.059,2.36-1.809,4.2-2.25
		C-238.41-1.846-236.11-2.045-233.35-2.006z"/>
	<path fill="#008677" d="M-184.091-13.826l-1.56,11.04c-0.201,1.761-0.521,3.5-0.96,5.22c-0.441,1.721-0.84,3.081-1.2,4.08
		l0.66,0.72l-2.88,20.94h-7.26l5.88-42H-184.091z M-173.951-2.006c2.6,0,4.56,0.701,5.88,2.1c1.32,1.401,1.78,3.441,1.38,6.12
		l-3.12,21.96h-7.26l2.88-20.04c0.2-1.56,0.109-2.619-0.27-3.18c-0.381-0.56-1.15-0.84-2.31-0.84c-1.641,0-3.311,0.49-5.01,1.47
		c-1.701,0.98-3.75,2.43-6.15,4.35l-0.6-4.2c2.72-2.6,5.28-4.54,7.68-5.82C-178.451-1.366-176.151-2.006-173.951-2.006z"/>
	<path fill="#008677" d="M-137.411,19.954c0.919,0,1.59,0.22,2.01,0.66c0.42,0.441,0.57,1.121,0.45,2.041l-0.42,3.06
		c-0.12,0.84-0.4,1.46-0.84,1.86c-0.441,0.4-1.101,0.6-1.98,0.6h-1.92c-1.88,0-2.7-0.9-2.46-2.7l0.42-3.12
		c0.24-1.6,1.2-2.4,2.88-2.4H-137.411z"/>
	<path fill="#008677" d="M-91.991-2.006c1.64,0,3.44,0.12,5.4,0.36c1.959,0.24,3.7,0.681,5.22,1.32l-1.08,4.5
		c-1.56-0.08-3.12-0.14-4.68-0.18c-1.56-0.039-2.84-0.06-3.84-0.06c-2.04,0-3.7,0.27-4.98,0.81c-1.281,0.54-2.271,1.491-2.97,2.85
		c-0.701,1.36-1.23,3.34-1.59,5.94c-0.32,2.601-0.34,4.581-0.06,5.94c0.279,1.36,0.95,2.28,2.01,2.761
		c1.059,0.479,2.57,0.719,4.53,0.719c0.68,0,1.52-0.02,2.52-0.059c1-0.04,2.08-0.1,3.24-0.181c1.16-0.079,2.28-0.181,3.36-0.3
		l0.54,4.74c-1.641,0.64-3.43,1.089-5.37,1.35c-1.94,0.26-3.81,0.391-5.61,0.391c-3.4,0-6.141-0.531-8.22-1.591
		c-2.08-1.06-3.48-2.739-4.2-5.04c-0.72-2.299-0.82-5.33-0.3-9.09c0.52-3.72,1.38-6.69,2.58-8.91c1.2-2.22,2.88-3.819,5.04-4.8
		C-98.291-1.516-95.471-2.006-91.991-2.006z"/>
	<path fill="#008677" d="M-42.611-2.006c3.48,0,6.26,0.521,8.34,1.56c2.079,1.041,3.489,2.71,4.23,5.01
		c0.74,2.3,0.83,5.37,0.27,9.21c-0.521,3.72-1.401,6.69-2.64,8.91c-1.24,2.221-2.96,3.82-5.16,4.801
		c-2.2,0.979-5.04,1.469-8.52,1.469s-6.26-0.52-8.34-1.559c-2.08-1.041-3.51-2.71-4.29-5.011c-0.78-2.3-0.891-5.349-0.33-9.15
		c0.52-3.72,1.39-6.699,2.61-8.94c1.22-2.24,2.949-3.85,5.19-4.83C-49.011-1.516-46.131-2.006-42.611-2.006z M-42.671,3.514
		c-1.881,0-3.39,0.28-4.53,0.84c-1.14,0.561-2.04,1.581-2.7,3.06c-0.66,1.48-1.191,3.6-1.59,6.36c-0.32,2.52-0.39,4.48-0.21,5.88
		c0.18,1.401,0.729,2.37,1.65,2.911c0.92,0.539,2.28,0.81,4.08,0.81c1.839,0,3.33-0.29,4.47-0.87c1.14-0.58,2.04-1.62,2.7-3.12
		c0.66-1.5,1.17-3.549,1.53-6.15c0.36-2.6,0.439-4.59,0.24-5.97c-0.201-1.38-0.75-2.349-1.65-2.91
		C-39.581,3.794-40.911,3.514-42.671,3.514z"/>
	<path fill="#008677" d="M4.128-1.286l-0.12,7.14l0.6,0.84l-2.94,21.48h-7.26l4.14-29.46H4.128z M16.248-2.006
		c2.64,0,4.58,0.73,5.82,2.19c1.239,1.461,1.659,3.471,1.26,6.03l-3.06,21.96h-6.96l2.76-20.04c0.2-1.44,0.09-2.469-0.33-3.09
		c-0.42-0.62-1.251-0.93-2.49-0.93c-0.88,0-1.77,0.19-2.67,0.57c-0.9,0.381-1.911,0.981-3.03,1.8c-1.121,0.82-2.481,1.95-4.08,3.39
		l-0.66-4.14c2.479-2.679,4.779-4.64,6.9-5.88C11.828-1.386,14.008-2.006,16.248-2.006z M35.029-2.006c2.679,0,4.64,0.741,5.88,2.22
		c1.239,1.48,1.659,3.48,1.26,6l-3.06,21.96h-7.2l2.82-20.04c0.2-1.56,0.05-2.619-0.45-3.18c-0.501-0.56-1.311-0.84-2.43-0.84
		c-0.801,0-1.63,0.18-2.49,0.54c-0.86,0.36-1.851,0.951-2.97,1.77c-1.12,0.82-2.46,1.95-4.02,3.39l-0.66-4.08
		c2.48-2.72,4.76-4.689,6.84-5.91C30.628-1.396,32.788-2.006,35.029-2.006z"/>
</g>
</svg>
